<svg xmlns="http://www.w3.org/2000/svg" viewBox="0 0 448 512" style="transform-origin: 0.4375em 0.5em 0px;"><path fill="#183153" d="M400 32H48C21.5 32 0 53.5 0 80v352c0 26.5 21.5 48 48 48h352c26.5 0 48-21.5 48-48V80c0-26.5-21.5-48-48-48z"></path><g transform="translate(224 256)" class=""><g transform="translate(0, 0)  scale(0.5625, 0.5625)  rotate(0 0 0)"><path fill="white" d="M448 48V384c-63 23-82 32-119 32-63 0-87-32-150-32-20 0-36 4-51 8V328c15-4 31-8 51-8 63 0 87 32 150 32 20 0 35-3 55-9V135c-20 6-35 9-55 9-63 0-87-32-150-32-51 0-75 21-115 29V448a31.6 31.6 0 0 1-32 32A31.6 31.6 0 0 1 0 448V64A31.6 31.6 0 0 1 32 32 31.6 31.6 0 0 1 64 64V77c40-8 64-29 115-29 63 0 87 32 150 32C366 80 385 71 448 48Z" transform="translate(-224 -256)" class=""></path></g></g></svg>