<svg width="137" height="28"><path fill="#2B3545" d="M9.32318349,20.4820617 L10.9836107,26.6690953 L6.00877198,28 L4.67576796,23.0329962 C5.95137278,21.8585349 7.50051129,21.0082235 9.32318349,20.4820617 Z M74.9468978,9.51188231 C76.9195361,9.51188231 78.0454472,10.3572759 78.7575444,11.3348815 L78.7575444,11.3348815 L78.8193136,11.4214658 L79.0554365,11.4214658 L79.0554365,9.84193378 L81.9833607,9.84193378 L81.9833607,21.1579839 C81.9833607,24.340623 79.6457438,26.5802579 75.9622263,26.5802579 C72.8151801,26.5802579 71.0060913,25.176483 69.8238016,23.3896134 L69.8238016,23.3896134 L69.7521936,23.2797433 L72.2550965,21.7237864 C72.8690161,22.9261167 74.0024061,24.0341466 75.773328,24.0341466 C77.6150867,24.0341466 79.0082119,23.0911424 79.0082119,21.0165332 L79.0082119,21.0165332 L79.0082119,19.6491772 L78.772089,19.6491772 C78.1109448,20.5686063 76.9775548,21.4880353 74.9468978,21.4880353 C72.1606474,21.4880353 69.6577445,19.1305249 69.6577445,15.4999588 C69.6577445,11.8693928 72.1606474,9.51188231 74.9468978,9.51188231 Z M91.6644002,9.51188231 C94.4506506,9.51188231 96.9535535,11.8693928 96.9535535,15.6885597 C96.9535535,19.5077266 94.4506506,21.865237 91.6644002,21.865237 C89.6337431,21.865237 88.5003531,20.969383 87.839209,20.0263789 L87.839209,20.0263789 L87.6030861,20.0263789 L87.6030861,26.3445068 L84.6279373,26.3445068 L84.6279373,9.84193378 L87.5558615,9.84193378 L87.5558615,11.4214658 L87.7919844,11.4214658 C88.5003531,10.4077363 89.6337431,9.51188231 91.6644002,9.51188231 Z M62.7865676,9.51188231 C65.8561655,9.51188231 67.8632103,11.2328649 67.8632103,14.1561779 L67.8632103,14.1561779 L67.8632103,21.5351855 L64.9825107,21.5351855 L64.9825107,20.0263789 L64.7463878,20.0263789 C64.3685912,20.7100569 63.4477118,21.865237 61.1573195,21.865237 C58.7488658,21.865237 56.9543316,20.6157565 56.9543316,18.3996967 C56.9543316,16.1836369 58.7960903,15.1699074 61.2517687,14.7927057 L61.2517687,14.7927057 L64.9352862,14.2269032 L64.9352862,13.9440019 C64.9352862,12.8123969 64.274142,11.8693928 62.6685062,11.8693928 C61.0628703,11.8693928 60.2128278,12.8123969 59.9294803,14.1326028 L59.9294803,14.1326028 L57.0723931,13.1660235 C57.875211,11.2328649 59.7169697,9.51188231 62.7865676,9.51188231 Z M104.108078,9.51188231 C107.177676,9.51188231 109.184721,11.2328649 109.184721,14.1561779 L109.184721,14.1561779 L109.184721,21.5351855 L106.304021,21.5351855 L106.304021,20.0263789 L106.067898,20.0263789 C105.690101,20.7100569 104.769222,21.865237 102.47883,21.865237 C100.070376,21.865237 98.2758418,20.6157565 98.2758418,18.3996967 C98.2758418,16.1836369 100.117601,15.1699074 102.573279,14.7927057 L102.573279,14.7927057 L106.256796,14.2269032 L106.256796,13.9440019 C106.256796,12.8123969 105.595652,11.8693928 103.990016,11.8693928 C102.384381,11.8693928 101.534338,12.8123969 101.250991,14.1326028 L101.250991,14.1326028 L98.3939033,13.1660235 C99.1967212,11.2328649 101.03848,9.51188231 104.108078,9.51188231 Z M117.071226,9.51188231 C120.329722,9.51188231 122.313155,11.4214658 122.832625,14.0383024 L122.832625,14.0383024 L119.951925,14.6512551 C119.786639,13.2367488 118.912985,12.1051438 117.118451,12.1051438 C115.323916,12.1051438 113.954403,13.4253496 113.954403,15.6885597 C113.954403,17.9517697 115.323916,19.2719755 117.118451,19.2719755 C118.912985,19.2719755 119.786639,18.2110958 120.046375,16.7022891 L120.046375,16.7022891 L122.927074,17.3859672 C122.26593,19.9556536 120.353334,21.865237 117.071226,21.865237 C113.671056,21.865237 110.979255,19.3191257 110.979255,15.6885597 C110.979255,12.0579936 113.671056,9.51188231 117.071226,9.51188231 Z M50.1539916,5.03261248 L50.1539916,7.86162501 L42.7397321,7.86162501 L42.7397321,11.8458176 L49.6817458,11.8458176 L49.6817458,14.6748302 L42.7397321,14.6748302 L42.7397321,21.5351855 L39.6229096,21.5351855 L39.6229096,5.03261248 L50.1539916,5.03261248 Z M54.9236745,5.03261248 L54.9236745,21.5351855 L51.9485258,21.5351855 L51.9485258,5.03261248 L54.9236745,5.03261248 Z M127.743982,5.03261248 L127.743982,14.1326028 L132.608114,9.84193378 L137,9.84193378 L131.498336,14.5333795 L136.905551,21.5351855 L133.245646,21.5351855 L129.37323,16.3486626 L127.743982,17.7395937 L127.743982,21.5351855 L124.768833,21.5351855 L124.768833,5.03261248 L127.743982,5.03261248 Z M23.3087427,8.71136056 L24.8058087,14.2896879 C23.3024986,15.5654838 21.6643017,16.4405557 19.8912184,16.9149047 C17.2315928,17.6264259 11.6579079,16.4966798 8.74954065,17.2747471 C6.94912281,17.7564079 5.40799465,18.5453385 4.12615615,19.6415391 L3.83495004,19.899963 L2.33788398,14.3216356 C3.67536621,13.0902033 5.31356308,12.2151313 7.2524743,11.6964187 C10.1608419,10.9183524 15.7345267,12.0480985 18.3941521,11.3365764 C20.1672356,10.8622283 21.8054325,9.98715639 23.3087427,8.71136056 Z M64.9352862,16.3250875 L61.5823407,16.8437398 C60.5197876,17.0087655 59.9294803,17.4802676 59.9294803,18.2346709 C59.9294803,18.9890743 60.5197876,19.602027 61.842076,19.602027 C63.7310593,19.602027 64.9352862,18.3761216 64.9352862,16.6315638 L64.9352862,16.6315638 L64.9352862,16.3250875 Z M106.256796,16.3250875 L102.903851,16.8437398 C101.841298,17.0087655 101.250991,17.4802676 101.250991,18.2346709 C101.250991,18.9890743 101.841298,19.602027 103.163586,19.602027 C105.05257,19.602027 106.256796,18.3761216 106.256796,16.6315638 L106.256796,16.6315638 L106.256796,16.3250875 Z M90.7671331,12.0579936 C88.9253744,12.0579936 87.5558615,13.3781994 87.5558615,15.6885597 C87.5558615,17.9989199 88.9253744,19.3191257 90.7671331,19.3191257 C92.6088919,19.3191257 93.9784048,17.9989199 93.9784048,15.6885597 C93.9784048,13.3781994 92.6088919,12.0579936 90.7671331,12.0579936 Z M75.8441649,12.0579936 C74.0024061,12.0579936 72.6328932,13.3781994 72.6328932,15.4999588 C72.6328932,17.6217182 74.0024061,18.9419241 75.8441649,18.9419241 C77.6859236,18.9419241 79.0554365,17.6217182 79.0554365,15.4999588 C79.0554365,13.3781994 77.6859236,12.0579936 75.8441649,12.0579936 Z M20.9708587,-2.11386464e-13 L22.4679248,5.57832738 C20.9646146,6.85412321 19.3264177,7.72919516 17.5533344,8.20354413 C14.8937088,8.91506534 9.32002393,7.78531922 6.41165667,8.56338657 C4.61123883,9.0450473 3.07011067,9.83397797 1.78827217,10.9301786 L1.49706606,11.1886024 L9.54791801e-14,5.61027505 C1.33748223,4.3788427 2.9756791,3.50377075 4.91459032,2.98505812 C7.82295787,2.20699185 13.3966428,3.33673797 16.0562681,2.62521586 C17.8293516,2.15086779 19.4675485,1.27579583 20.9708587,-2.11386464e-13 Z"/></svg>