<svg xmlns="http://www.w3.org/2000/svg" width="146" fill="none" viewBox="0 0 146 44" height="44">

<path d="M24.18 8.04V22H21.38V8.04H24.18ZM25.8264 16.46C25.8264 15.3133 26.0597 14.3133 26.5264 13.46C26.9931 12.5933 27.6397 11.9267 28.4664 11.46C29.2931 10.98 30.2397 10.74 31.3064 10.74C32.6797 10.74 33.8131 11.0867 34.7064 11.78C35.6131 12.46 36.2197 13.42 36.5264 14.66H33.5064C33.3464 14.18 33.0731 13.8067 32.6864 13.54C32.3131 13.26 31.8464 13.12 31.2864 13.12C30.4864 13.12 29.8531 13.4133 29.3864 14C28.9197 14.5733 28.6864 15.3933 28.6864 16.46C28.6864 17.5133 28.9197 18.3333 29.3864 18.92C29.8531 19.4933 30.4864 19.78 31.2864 19.78C32.4197 19.78 33.1597 19.2733 33.5064 18.26H36.5264C36.2197 19.46 35.6131 20.4133 34.7064 21.12C33.7997 21.8267 32.6664 22.18 31.3064 22.18C30.2397 22.18 29.2931 21.9467 28.4664 21.48C27.6397 21 26.9931 20.3333 26.5264 19.48C26.0597 18.6133 25.8264 17.6067 25.8264 16.46ZM43.0977 22.18C42.031 22.18 41.071 21.9467 40.2177 21.48C39.3643 21 38.691 20.3267 38.1977 19.46C37.7177 18.5933 37.4777 17.5933 37.4777 16.46C37.4777 15.3267 37.7243 14.3267 38.2177 13.46C38.7243 12.5933 39.411 11.9267 40.2777 11.46C41.1443 10.98 42.111 10.74 43.1777 10.74C44.2443 10.74 45.211 10.98 46.0777 11.46C46.9443 11.9267 47.6243 12.5933 48.1177 13.46C48.6243 14.3267 48.8777 15.3267 48.8777 16.46C48.8777 17.5933 48.6177 18.5933 48.0977 19.46C47.591 20.3267 46.8977 21 46.0177 21.48C45.151 21.9467 44.1777 22.18 43.0977 22.18ZM43.0977 19.74C43.6043 19.74 44.0777 19.62 44.5177 19.38C44.971 19.1267 45.331 18.7533 45.5977 18.26C45.8643 17.7667 45.9977 17.1667 45.9977 16.46C45.9977 15.4067 45.7177 14.6 45.1577 14.04C44.611 13.4667 43.9377 13.18 43.1377 13.18C42.3377 13.18 41.6643 13.4667 41.1177 14.04C40.5843 14.6 40.3177 15.4067 40.3177 16.46C40.3177 17.5133 40.5777 18.3267 41.0977 18.9C41.631 19.46 42.2977 19.74 43.0977 19.74ZM56.6716 10.76C57.9916 10.76 59.0582 11.18 59.8716 12.02C60.6849 12.8467 61.0916 14.0067 61.0916 15.5V22H58.2916V15.88C58.2916 15 58.0716 14.3267 57.6316 13.86C57.1916 13.38 56.5916 13.14 55.8316 13.14C55.0582 13.14 54.4449 13.38 53.9916 13.86C53.5516 14.3267 53.3316 15 53.3316 15.88V22H50.5316V10.92H53.3316V12.3C53.7049 11.82 54.1782 11.4467 54.7516 11.18C55.3382 10.9 55.9782 10.76 56.6716 10.76ZM67.5942 22.18C66.6876 22.18 65.8742 22.02 65.1542 21.7C64.4342 21.3667 63.8609 20.92 63.4342 20.36C63.0209 19.8 62.7942 19.18 62.7542 18.5H65.5742C65.6276 18.9267 65.8342 19.28 66.1942 19.56C66.5676 19.84 67.0276 19.98 67.5742 19.98C68.1076 19.98 68.5209 19.8733 68.8142 19.66C69.1209 19.4467 69.2742 19.1733 69.2742 18.84C69.2742 18.48 69.0876 18.2133 68.7142 18.04C68.3542 17.8533 67.7742 17.6533 66.9742 17.44C66.1476 17.24 65.4676 17.0333 64.9342 16.82C64.4142 16.6067 63.9609 16.28 63.5742 15.84C63.2009 15.4 63.0142 14.8067 63.0142 14.06C63.0142 13.4467 63.1876 12.8867 63.5342 12.38C63.8942 11.8733 64.4009 11.4733 65.0542 11.18C65.7209 10.8867 66.5009 10.74 67.3942 10.74C68.7142 10.74 69.7676 11.0733 70.5542 11.74C71.3409 12.3933 71.7742 13.28 71.8542 14.4H69.1742C69.1342 13.96 68.9476 13.6133 68.6142 13.36C68.2942 13.0933 67.8609 12.96 67.3142 12.96C66.8076 12.96 66.4142 13.0533 66.1342 13.24C65.8676 13.4267 65.7342 13.6867 65.7342 14.02C65.7342 14.3933 65.9209 14.68 66.2942 14.88C66.6676 15.0667 67.2476 15.26 68.0342 15.46C68.8342 15.66 69.4942 15.8667 70.0142 16.08C70.5342 16.2933 70.9809 16.6267 71.3542 17.08C71.7409 17.52 71.9409 18.1067 71.9542 18.84C71.9542 19.48 71.7742 20.0533 71.4142 20.56C71.0676 21.0667 70.5609 21.4667 69.8942 21.76C69.2409 22.04 68.4742 22.18 67.5942 22.18ZM80.0927 10.76C80.9327 10.76 81.6793 10.9467 82.3327 11.32C82.986 11.68 83.4927 12.22 83.8527 12.94C84.226 13.6467 84.4127 14.5 84.4127 15.5V22H81.6127V15.88C81.6127 15 81.3927 14.3267 80.9527 13.86C80.5127 13.38 79.9127 13.14 79.1527 13.14C78.3793 13.14 77.766 13.38 77.3127 13.86C76.8727 14.3267 76.6527 15 76.6527 15.88V22H73.8527V7.2H76.6527V12.3C77.0127 11.82 77.4927 11.4467 78.0927 11.18C78.6927 10.9 79.3593 10.76 80.0927 10.76ZM91.5953 22.18C90.5286 22.18 89.5686 21.9467 88.7153 21.48C87.862 21 87.1886 20.3267 86.6953 19.46C86.2153 18.5933 85.9753 17.5933 85.9753 16.46C85.9753 15.3267 86.222 14.3267 86.7153 13.46C87.222 12.5933 87.9086 11.9267 88.7753 11.46C89.642 10.98 90.6086 10.74 91.6753 10.74C92.742 10.74 93.7086 10.98 94.5753 11.46C95.442 11.9267 96.122 12.5933 96.6153 13.46C97.122 14.3267 97.3753 15.3267 97.3753 16.46C97.3753 17.5933 97.1153 18.5933 96.5953 19.46C96.0886 20.3267 95.3953 21 94.5153 21.48C93.6486 21.9467 92.6753 22.18 91.5953 22.18ZM91.5953 19.74C92.102 19.74 92.5753 19.62 93.0153 19.38C93.4686 19.1267 93.8286 18.7533 94.0953 18.26C94.362 17.7667 94.4953 17.1667 94.4953 16.46C94.4953 15.4067 94.2153 14.6 93.6553 14.04C93.1086 13.4667 92.4353 13.18 91.6353 13.18C90.8353 13.18 90.162 13.4667 89.6153 14.04C89.082 14.6 88.8153 15.4067 88.8153 16.46C88.8153 17.5133 89.0753 18.3267 89.5953 18.9C90.1286 19.46 90.7953 19.74 91.5953 19.74ZM98.3092 16.46C98.3092 15.3133 98.5425 14.3133 99.0092 13.46C99.4759 12.5933 100.123 11.9267 100.949 11.46C101.776 10.98 102.723 10.74 103.789 10.74C105.163 10.74 106.296 11.0867 107.189 11.78C108.096 12.46 108.703 13.42 109.009 14.66H105.989C105.829 14.18 105.556 13.8067 105.169 13.54C104.796 13.26 104.329 13.12 103.769 13.12C102.969 13.12 102.336 13.4133 101.869 14C101.403 14.5733 101.169 15.3933 101.169 16.46C101.169 17.5133 101.403 18.3333 101.869 18.92C102.336 19.4933 102.969 19.78 103.769 19.78C104.903 19.78 105.643 19.2733 105.989 18.26H109.009C108.703 19.46 108.096 20.4133 107.189 21.12C106.283 21.8267 105.149 22.18 103.789 22.18C102.723 22.18 101.776 21.9467 100.949 21.48C100.123 21 99.4759 20.3333 99.0092 19.48C98.5425 18.6133 98.3092 17.6067 98.3092 16.46ZM117.22 22L113.46 17.28V22H110.66V7.2H113.46V15.62L117.18 10.92H120.82L115.94 16.48L120.86 22H117.22Z" fill="#24252C"/>

<path d="M6.48083 17.1952L5.37867 24.5643C5.36604 24.6478 5.38107 24.7334 5.42125 24.8071C5.46133 24.8809 5.5244 24.9387 5.60011 24.9711C5.67581 25.0035 5.75984 25.0088 5.83885 24.9862C5.91774 24.9634 5.98707 24.914 6.03569 24.8459L13.397 14.5194C13.5115 14.3589 13.5804 14.169 13.5964 13.9706C13.6124 13.772 13.5748 13.5729 13.4877 13.3952C13.4006 13.2176 13.2674 13.0683 13.103 12.964C12.9386 12.8596 12.7494 12.8044 12.5564 12.8044H7.11917L8.22144 5.43568C8.23407 5.35204 8.21905 5.26652 8.17886 5.19275C8.13878 5.1191 8.07571 5.0613 8 5.02888C7.92429 4.99646 7.84028 4.99117 7.76127 5.01384C7.68237 5.03652 7.61304 5.08597 7.56443 5.1541L0.202845 15.4806C0.0885422 15.641 0.0195496 15.8309 0.00361098 16.0294C-0.0124415 16.2279 0.025243 16.427 0.112336 16.6046C0.199543 16.7822 0.33263 16.9315 0.497026 17.0358C0.661421 17.14 0.850635 17.1952 1.04361 17.1952H6.48083Z" fill="url(#paint0_linear)"/>
<defs>
<linearGradient id="paint0_linear" x1="0" y1="15" x2="13.6" y2="15" gradientUnits="userSpaceOnUse">
<stop stop-color="#1B4ADC"/>
<stop offset="0.5" stop-color="#7000FF"/>
<stop offset="1" stop-color="#E700B7"/>
</linearGradient>
</defs>
</svg>