<svg height="174" viewBox="0 0 562 174" width="562" xmlns="http://www.w3.org/2000/svg" xmlns:xlink="http://www.w3.org/1999/xlink"><defs><path id="a" d="m221.68 135.88c7.36 0 12.08-4.4 14.8-10.32 2-4.4 2.8-9.68 3.2-14.56 6.88-4.4 13.92-11.36 18.32-23.6.08-.24.16-.48.16-.72 0-.96-.88-1.36-1.84-1.36-.88 0-1.84.4-2.08 1.2-3.04 9.92-8.48 15.92-14.4 20.08.08-1.84.08-3.6.08-5.12 2.4-3.28 6.48-9.12 6.48-13.28 0-4.32-2.32-5.6-4.56-5.6-7.12 0-9.6 10.72-10.72 20-3.68 3.04-7.84 4.64-11.36 4.64-7.68 0-11.28-5.84-11.28-14.24 0-15.28 14-33.92 28.08-33.92 3.28 0 5.2 2 5.2 4.4s-1.84 5.12-6.56 6.4c-.4.08-.64.56-.64 1.04 0 1.04 2.4 2.88 6.32 2.88 5.76 0 11.92-3.36 11.92-9.68 0-6.88-6.96-10-14.96-10-19.68 0-41.92 20.24-41.92 42.08 0 9.6 5.6 18.56 17.44 18.56 5.44 0 11.92-2.24 17.2-6.72-.16 1.36-.24 2.72-.4 3.76-4.56 2.08-8.88 3.68-12.08 5.84-3.44 2.24-6 5.12-6 9.6 0 5.2 4.48 8.64 9.6 8.64zm.16-8.08c-2 0-3.04-1.2-3.04-2.96 0-4.08 4.56-6 10.8-8.72-1.44 7.52-4.56 11.68-7.76 11.68zm40.8-16.08c4.32 0 8.8-2.56 14.8-13.36.32-.56.4-.96.4-1.36 0-.72-.48-1.2-1.04-1.2-.4 0-.88.24-1.2.72-5.275152 7.524848-7.466079 7.978549-8.615254 7.999136l-.104746.000864c-.96 0-1.84-.72-1.84-2.24 0-4 2.64-8.4 4.48-11.36.96-1.52 1.6-2.72 1.6-3.92 0-2-1.84-3.68-3.12-3.68-.48 0-1.12.24-1.92.88-1.28.96-4.24 1.76-6.56 1.76h-.96c.48-1.76.72-3.2.72-4.16 0-2.96-1.28-4.88-3.28-4.88-2.64 0-4.72 2.72-4.72 5.92 0 5.12 5.12 8.64 10.24 9.84-2.56 3.12-5.84 8.24-5.84 12.08 0 4.16 2.96 6.96 6.96 6.96zm20.16 0c2.64 0 5.36-.8 8.16-3.36 1.04 1.92 2.8 3.04 5.2 3.04 3.76 0 7.68-2.24 13.68-13.04.32-.56.4-.96.4-1.36 0-.72-.48-1.2-1.04-1.2-.4 0-.88.24-1.2.72-5.44 7.76-7.6 8.08-8.72 8.08-.8 0-1.44-.72-1.68-2.16 1.84-2.8 5.12-8.16 5.12-12.56 0-2-1.28-3.52-2.96-3.52-.32 0-.64.08-.64.08s.08-.24.08-.56c0-2.56-3.04-5.12-7.28-5.12-9.36 0-18.32 10.16-18.32 20.64 0 6.56 4.08 10.32 9.2 10.32zm3.84-6.24c-2.56 0-4.32-2.32-4.32-6.48 0-8.08 4.88-13.84 7.92-13.84 1.36 0 2.08.88 2.08 2.32 0 1.28-.64 1.68-.64 2.4 0 .48.8.8 1.68.96-2.16 3.44-3.52 8.16-3.52 12.32v.96c-.8.8-1.84 1.36-3.2 1.36zm17.92 30.4c5.92 0 8.4-11.44 10.08-26.4 1.36 1.52 3.6 2.08 5.76 2.08 10.24 0 18.16-11.68 18.16-20.88 0-4.88-2.24-9.92-7.68-9.92-5.76 0-10.24 5.84-13.12 11.28.4-1.68.64-3.12.64-4.16 0-2.64-2.32-4.32-4.16-4.32-3.92 0-5.36 5.6-6.32 10.56-1.2 6.08-1.84 11.84-2.24 16.88-2.8 6.32-5.76 14.24-5.76 18.24 0 2.56.48 6.64 4.64 6.64zm17.44-29.2c-1.2 0-2.32-.8-2.32-2.88 0-1.04.4-1.6.4-1.92 0-.72-.72-1.04-1.76-1.04-.64 0-1.36.24-2.08.56 3.04-6.88 7.92-12.72 11.2-12.72 1.76 0 2.96 1.6 2.96 4.96 0 5.92-3.84 13.04-8.4 13.04zm42.16 5.04c3.92 0 8.32-2.56 14.32-13.36.32-.56.4-.96.4-1.36 0-.72-.48-1.2-1.04-1.2-.4 0-.88.24-1.2.72-5.275152 7.524848-7.466079 7.978549-8.615254 7.999136l-.104746.000864c-.72 0-1.36-.72-1.36-1.92 0-3.68 4.88-9.84 4.88-16.24 0-4.08-2.32-5.6-4.56-5.6-6 0-13.28 11.04-17.68 19.28.32-2.72.88-5.6 1.6-8.4 9.36-7.76 18.16-20.56 18.16-29.44 0-4.8-2-8.08-5.92-8.08-9.36 0-18.48 23.2-21.68 40-.56 3.04-.88 6.08-.88 8 0 2.08.24 4.56.64 5.6.96 2.4 2.56 4 5.36 4 2.64 0 3.12-3.2 4.88-7.92 2.8-7.44 7.76-14.16 9.6-14.16.32 0 .48.24.48.64 0 1.92-3.68 8.88-3.68 14.4 0 4.16 2.64 7.04 6.4 7.04zm-11.92-25.12c3.28-11.12 8.08-20.88 10.16-20.88.8 0 .88.72.88 1.28 0 4.56-4.64 12.56-11.04 19.6zm37.52-10.32c3.76 0 7.12-2.48 7.12-6.08 0-2.32-1.52-5.04-5.36-5.04-3.76 0-6.88 2.88-6.88 6.48 0 2.72 2.24 4.64 5.12 4.64zm-8 35.44c4.16 0 9.52-2.56 15.52-13.36.32-.56.4-.96.4-1.36 0-.72-.48-1.2-1.04-1.2-.4 0-.88.24-1.2.72-5.44 7.76-7.84 8.24-9.36 8.24-1.12 0-2.16-.88-2.16-3.28 0-2.72 1.12-6.88 3.52-11.44 1.2-2.24 1.92-3.04 1.92-4.48 0-2.64-1.68-4.8-4.56-4.8-2.96 0-5.28 4.16-7.28 9.12-1.6 4-2.72 9.12-2.72 12.8 0 4.96 2.24 9.04 6.96 9.04zm21.76 0c10 0 15.44-8.08 15.44-11.12 0-.72-.48-1.2-1.04-1.2-.64 0-1.36 1.28-2.64 2.48-1.6 1.52-4 3.2-7.36 3.2-4.56 0-6.56-3.6-6.56-7.92 0-5.92 4.16-12.56 7.2-12.56.8 0 1.44.64 1.44 1.68 0 2.64-2.24 4.08-2.24 4.88 0 1.6 2 3.52 4.4 3.52 2.88 0 6-2.4 6-6.72 0-3.6-3.6-7.2-8.64-7.2-8.88 0-17.2 9.84-17.2 19.52 0 7.68 5.76 11.44 11.2 11.44zm37.12 7.36c14.88 0 26.16-9.28 26.16-20.72 0-16.32-24.08-17.44-24.08-29.6 0-6.4 6.32-9.84 11.68-9.84 3.44 0 6.24 1.68 6.24 4.72 0 2.72-1.84 4.4-5.04 5.36-.4.08-.64.4-.64.8 0 1.28 1.76 2.8 5.68 2.8 4.64 0 10.72-2.64 10.72-8.8 0-6.64-7.44-9.68-15.44-9.68-13.28 0-24.56 8-24.56 18.48 0 7.36 5.397385 11.5535339 11.072987 15.3620171l1.112573.7409964.741453.4908244.738298.4898862c5.396438 3.5924115 10.334689 7.2197811 10.334689 13.3162759 0 6.72-5.52 11.44-12.64 11.44-7.6 0-11.76-4.88-11.76-10.16 0-4.32 2.56-5.6 2.56-7.12s-2.4-3.6-5.52-3.6c-5.2 0-8.88 4.48-8.88 9.84 0 8.08 8.16 15.68 21.52 15.68zm53.36-7.36c8.4 0 16.08-13.84 19.76-24.72.08-.24.08-.48.08-.64 0-.88-.64-1.2-1.52-1.2-1.04 0-2.32.56-2.56 1.52-2.64 10.4-8.32 17.84-11.68 17.84-1.2 0-2.24-1.04-2.24-3.6 0-.56 0-1.12.08-1.68 2.32-2.8 5.52-8.24 5.52-12.32 0-2.64-1.12-4.8-4-4.8-2.96 0-5.76 2.8-7.76 7.76-1.6 4-2.96 9.12-2.96 12.8v.08c-1.68 1.6-3.44 2.64-5.36 2.64-1.44 0-2.72-.8-2.72-4.16 0-3.2 1.28-6.64 3.84-11.2 1.28-2.24 1.92-3.04 1.92-4.48 0-2.64-1.68-4.8-4.56-4.8-2.96 0-5.28 4.16-7.28 9.12-1.6 4-2.72 9.12-2.72 12.8 0 4.96 2.72 9.04 7.84 9.04 2.72 0 6.08-.88 9.68-4.72 1.04 2.8 3.2 4.72 6.64 4.72zm24.32 0c4.32 0 8.8-2.56 14.8-13.36.32-.56.4-.96.4-1.36 0-.72-.48-1.2-1.04-1.2-.4 0-.88.24-1.2.72-5.275152 7.524848-7.466079 7.978549-8.615254 7.999136l-.104746.000864c-.96 0-1.84-.72-1.84-2.24 0-4 2.64-8.4 4.48-11.36.96-1.52 1.6-2.72 1.6-3.92 0-2-1.84-3.68-3.12-3.68-.48 0-1.12.24-1.92.88-1.28.96-4.24 1.76-6.56 1.76h-.96c.48-1.76.72-3.2.72-4.16 0-2.96-1.28-4.88-3.28-4.88-2.64 0-4.72 2.72-4.72 5.92 0 5.12 5.12 8.64 10.24 9.84-2.56 3.12-5.84 8.24-5.84 12.08 0 4.16 2.96 6.96 6.96 6.96zm22.32 20.72c7.44 0 12.08-7.84 12.08-17.92 0-3.76-1.44-10.24-3.28-14.16 7.04-.96 9.28-4.08 9.28-7.36 0-2.16-1.12-3.2-2-3.2-.72 0-1.04 1.36-4.56 3.04-1.6.8-3.68 1.36-5.84 1.68-1.36-1.68-3.2-3.2-4.72-3.28 11.04-8.08 19.84-21.6 19.84-28.32 0-5.2-2.24-8.8-6.96-8.8-10.8 0-25.28 33.76-25.28 58.96 0 12 4.56 19.36 11.44 19.36zm1.92-45.92c4.24-12.24 10.32-20.8 12.16-20.8.64 0 .88.48.88 1.28 0 3.44-5.76 12.8-13.04 19.52zm.08 35.52c-2.96 0-4.32-4.4-4.32-11.84 0-4.24.4-8.4 1.2-12.4 1.04 1.28 2.72 2.32 4.4 2.56 2.56 4.64 2.96 9.12 2.96 12.48 0 4.8-1.6 9.2-4.24 9.2z"/></defs><g fill="none"><ellipse cx="79" cy="70" fill="#8aced4" rx="79" ry="70"/><path d="m68.076589 17.212591c1.2489049-.7348144 2.2418262-1.9898464 3.0589266-3.1213413.9674723-1.3396423 1.8948631-2.7012397 2.9509754-3.9744257 1.7763792-2.14178785 4.3695575-3.37720573 7.1736641-3.07040253 2.8283977.3097335 4.8455432 1.92046392 6.1780964 4.08332603 1.1193033-.43591 2.338955-.6141976 3.5989776-.4763105 1.8688235.2043422 3.4193525 1.0099973 4.614719 2.2331254 5.2837869-1.7477379 11.1655639-1.0395664 15.9130749 2.0797237 8.281885 5.4408268 10.74366 16.5089681 5.672 24.9291496 1.613136 2.3449578 3.069749 4.7996967 4.357566 7.3366755 1.763797 3.4755719 2.967067 7.4168936 3.839455 11.3568024 3.859055-3.9600786 6.088009-9.2372593 6.776689-14.8472653.59154-4.8201916 2.864964-9.7706475 7.429335-11.9879657 4.066474-1.9754994 8.464718-1.0550838 12.210517 1.1748198 5.098307 3.0346857 8.096985 8.6324018 9.354367 14.2817187 1.763796 7.9245672.406647 16.444238-2.242707 24.0107499-4.481608 12.8012603-13.429324 22.1391912-25.151007 27.7328225l11.798952 3.3517395.093031.032495c2.639988.919541 5.947887 2.149692 6.679868 5.20194.759173 3.165252-1.855071 5.878202-3.869588 7.941533l-.069628.071432-22.958903 20.898796-78.1862993 18.407779c-1.6552605 5.603302-7.0262163 8.274701-13.1071957 8.135309-3.3386047-.076701-6.5672143-1.157842-9.4391965-2.826828l-2.6496468.623857c-2.067175.48685-4.286181 1.349597-6.4159859.834641-2.3281327-.562672-3.7742136-2.456495-5.053252-4.333923-5.89112263-8.648836-9.00884516-22.009199-7.04760098-32.323817.53858837-2.832976 1.36358456-4.389254 3.25903254-5.376421.32414759-8.651141 2.70991371-17.00813 6.78809064-24.6712343 2.8324914-5.3219715 6.7275401-10.7326145 11.1646778-14.9491783 1.0037495-12.2206987 2.824298-27.7234824 9.346451-38.0313607.1573928-.2485479.3165413-.4962173.4771524-.742718-.5742801-.8167822-1.053773-1.7026573-1.4460868-2.6359538-3.6507615-8.6807573-.968642-18.7968097 6.53561-24.5160589 8.0092014-6.10449702 19.3976501-5.51020916 26.7217157 1.3891151.5883224.5544756 1.1415386 1.1464213 1.6438534 1.7776024z" fill="#fff"/><g transform="translate(113 33)"><path d="m22.1104242 10.0733327c-1.0379304 8.3703599-5.9893105 20.7823026-22.08178229 24.2296889l2.1128777 32.0531105s30.29180579-2.2987631 40.25716239-30.4820663c6.1873268-17.4984981 1.4157334-29.89263075-5.6729176-34.07069841-7.7676012-4.57859928-13.6235562.26809674-14.615358 8.26996531z" fill="#32547e"/><path d="m5.4451408 62.1121214-1.29264061-24.9737788c6.33889411-1.8204963 11.71979991-5.3904602 15.64530371-10.8196206 3.1790098-4.3963786 5.1943505-9.7839351 5.8591763-15.1449882.2870245-2.31389868 1.233295-5.80148395 3.5597491-6.93327294 1.8152779-.88317747 4.0386128.02707166 5.631499.96584421 3.4551648 2.03677933 5.4220277 6.12312243 6.2654537 9.87563033 1.4577451 6.4840841.2027092 13.6164413-1.9812603 19.7937579-3.7727442 10.6691464-11.2174626 18.4849855-21.4589624 23.2932812-3.3499871 1.5730662-6.9200108 2.7848886-10.5373377 3.5909246-.54173294.1208037-1.11196409.2418983-1.69100453.3522223z" fill="#fff"/><path d="m5.4451408 62.1120979-1.29264061-24.9737553c3.88966754-1.1169238 7.41766171-2.8925893 10.47095661-5.3520364 1.3884098 5.8320489 4.7715993 14.5022403 12.9601602 20.0469776-2.9160776 2.4949555-6.2325894 4.6091644-9.910128 6.3356672-3.3496965 1.5730662-6.9200108 2.7848886-10.53733774 3.5909246-.54173294.1208037-1.11196409.2421893-1.69100453.3522223z" fill="#8aced4"/><g fill="#32547e" transform="translate(29 2)"><path d="m2.8694594 1.34267094s1.0943337 6.04165477-1.8760886 12.31554526c0 0 1.2121409-8.36512853-.6639478-12.85760488l1.5235509-.23258308 1.0164855.77460097z"/><path d="m10.2004519 4.20585314s1.1119641 6.03842196-1.840543 12.32077656c0 0 1.2274163-8.4085074-.6618893-12.89569362l1.4838883-.19677905 1.0185381.77168553z"/></g></g><g transform="translate(87 15)"><path d="m22.8035504 2.48226693c-7.0378491-4.57827058-16.52599435-2.62892849-21.14592432 4.34408838-.98105985 1.48038958-1.54344622 3.14583306-1.61797979 4.91747569-.227152 5.3784797 3.97649862 10.0914996 8.28023503 12.8236748 5.67227368 3.600956 14.52616118 5.4187863 18.86818658-1.1335331 4.6205416-6.9730109 2.6530796-16.3737441-4.3844816-20.95170577z" fill="#32547e"/><path d="m20.9196756 5.32505501c5.4644239 3.55447123 6.9864652 10.82818659 3.3989729 16.24222049-5.6788091 8.5698886-25.64653818-4.039891-19.79225654-12.87458532 3.58752225-5.41437249 10.92857194-6.92239749 16.39324764-3.36765894z" fill="#fff"/><path d="m18.5939117 8.61944326c3.3669015 2.18999354 4.3049056 6.67146894 2.0942548 10.00738154-3.4987367 5.2802231-15.80146401-2.489189-12.19464134-7.9324088 2.21065084-3.33588297 6.73350314-4.2649544 10.10043454-2.07496085z" fill="#f7b88a"/><path d="m18.4697991 8.17758558c2.7243454 1.77193962 3.8734671 5.02956782 3.074721 7.98771532-.1256021-2.3794553-1.3528164-4.6697669-3.5165562-6.0774739-3.3787791-2.19763902-7.842543-1.46597782-10.34362349 1.5689453.09709629-.4713014.28535066-.9352496.58257896-1.3836003 2.23262543-3.36971437 6.80149533-4.30820156 10.20284253-2.09555672z" fill="#32547e"/></g><path d="m37.032038 42.6964233c6.3258589-9.9904662 15.6846972-18.3334747 27.0472788-21.8915947 4.0918893-1.28089 8.2565128-1.8763166 12.4203071-1.7980008 4.1637587-.078314 8.3295431.5168152 12.4211363 1.7980008 13.2222188 4.1403864 23.7309438 14.7597187 29.9045238 26.9145756 7.228402 14.2338423 6.05891 42.2301394 8.174716 58.4640768l-8.537262 2.522773-4.171091 22.293746-37.7915019-11.166951-37.7915015 11.166951-4.1713816-22.293746-8.537262-2.522773c2.3917755-18.351065 1.1976498-47.9558484 11.031961-63.4871762z" fill="#32547e"/><path d="m29 103.20927 8.6234953 2.525624 4.2184154 20.265106 34.6582625-10.150843 34.6579638 10.150843 4.218415-20.265106 8.623448-2.525624c-2.133905-14.9842936-1.183627-41.3081559-7.871916-54.3615906-7.967768-15.5486169-22.766988-27.1830147-39.628502-26.8403008-15.1487688-.3077885-28.6327484 9.0519093-36.9936017 22.2323079-9.0523057 14.2687965-8.0958105 42.0471509-10.5059803 58.9696425z" fill="#fff"/><path d="m33 84v20.44688l8.6562022 2.499292-.1240939 20.053828 34.7889517-10.045013 34.788652 10.045013-.124094-20.053828 7.292124-.84702 5.722258-1.652272c-1.281906-8.8760024-56.1921652 9.649348-77.0593377 1.048911-7.4040436-3.051307-8.5731189-14.4831894-13.9406623-21.495791z" fill="#8aced4"/><path d="m79.1202817 22.5618584c-1.7353924.3159769-3.6185197.9706869-4.4880731 2.6001712-.0481975.0898623-.0932577.1805996-.1354665.2722129l-8.4967421 5.2411873 8.3558256-.8755706c.7386456 2.1613637 8.8672023 2.6882826 11.6118784 1.7651509 4.3623021-2.5928777 8.6786609-7.3771828 7.9517344-12.8333642-.3639056-2.7305887-1.5551552-5.3958184-4.3295061-5.7062527-1.5716943-.1756396-2.9819709.5747687-3.9670217 1.7893704-2.191704 2.7008254-3.6330664 5.7462257-6.5026611 7.7471024z" fill="#32547e"/><path d="m80.1449412 25.8741077c4.6611117-2.5525961 6.4109246-6.1149022 9.276338-9.249047 2.2838603-2.49842 4.4338701 3.0453594 3.2359754 6.8859063-.3054585.9781908-2.9807532 7.837108-6.2113299 9.164254 0 0-7.8954191.5350041-10.6880286.2316925-1.8759092-.20384.2134167-4.531313 1.0916979-5.9906359.4288562-.7122177 3.3182423-1.0443009 3.2953132-1.0421563z" fill="#fff"/><path d="m145.933258 112.83956-22.431603 20.183083c-34.4749931 8.023391-68.9498665 16.046487-103.4256933 24.069818-4.61581 1.074222-5.1576326 1.974467-7.969157-2.105533-5.50379714-7.986609-8.36221294-20.415733-6.57683528-29.698982.596419-3.100647 1.15830555-3.096556 4.16281829-3.795679l105.24080629-24.492267 29.48355 8.278793c5.725425 1.970959 5.917835 3.103859 1.516275 7.560684z" fill="#32547e"/><path d="m9.5123194 125.174096 104.1241856-24.174096c-.150753 5.876278.190284 20.149841 6.363495 28.944996l-103.6142572 24.055004c-5.874054-7.805153-8.60086383-19.277344-6.87324469-28.825963z" fill="#f9b452"/><path d="m9.51275292 124.769891 104.27158108-23.769891c-.050519 1.937527-.046088 4.804176.215666 8.08388l-104.91824503 23.91612c-.18819115-2.811695-.05435968-5.595045.43133262-8.230109z" fill="#fed463"/><path d="m10 125 104-24-.552162 3.741866z" fill="#fff"/><path d="m116.043619 122c.932266 3.005607 2.210815 5.888976 3.956381 8.339965l-103.4196546 23.660035c-1.8551072-2.428938-3.3957291-5.219227-4.5803454-8.196232l104.043976-23.803768z" fill="#dc8446"/><path d="m116.549253 120-24.549253 8 25-3.958352z" fill="#32547e"/><path d="m9.51064871 125.535983 19.71026109-4.535983c-.574588 7.093456.0176344 17.653568 5.7790902 28.71036l-18.6422495 4.28964c-5.8522712-7.707151-8.56824667-19.035297-6.8471196-28.464023z" fill="#ec6e6f"/><path d="m48.846163 120c-1.771131 6.663764-2.761805 17.064463 2.153837 29.47384l-15.4103462 3.52616c-.5215795-1.505723-.8497395-2.501892-.9022208-2.768855-.2432462-1.233595-3.7439297-16.480058-4.687433-25.918716l18.8461332-4.312429z" fill="#dc8446"/><path d="m114.02435 101.316174 1.330349-.316174 27.554394 7.897708c.363159.126642.726318.251554 1.090907.3756-.345444.34733-.689744.695812-1.030903 1.047469l-20.955529 19.245638-1.826086.433585c-5.97887-8.715847-6.309119-22.860595-6.163149-28.6838z" fill="#fff"/><path d="m140 112.716594-18.230767 16.84225-1.845867.441156c-1.739001-2.550432-3.005197-5.558746-3.923366-8.690262l22.624913-9.309738c.48811.232018.945026.471075 1.375087.716582z" fill="#94a6bd"/><path d="m135 106 8.675593 2.46518c.440428.152722.882276.302884 1.324407.452477-.419401.418065-.837666.837551-1.252233 1.261018l-6.39385 5.821325c-.701558-1.551392-1.261614-3.185543-1.663398-4.894486-.400079-1.70269-.626544-3.409647-.690519-5.105514z" fill="#32547e"/><path d="m112.102403 100.875465c-.318019 4.997269.097652 10.26163 1.345525 15.578815 1.248166 5.317197 3.217632 10.215162 5.725482 14.54572l3.713671-.875755.112919-.103081c-2.576986-4.235277-4.601181-9.107787-5.852541-14.439431-1.251331-5.331056-1.606798-10.596881-1.184212-15.539577l-.148351-.042156-3.712519.87547z" fill="#32547e"/><path d="m138.000358 107.203778c-.061961 2.176848 7.937308 3.768924 7.999281 1.592376.06225-2.176548-7.937016-3.768924-7.999281-1.592376z" fill="#fff"/><path d="m112.549264 107-24.549264 8 25-3.958352z" fill="#32547e"/><path d="m45.9076468 116.144164s-4.23276 8.428682.580017 22.855836c0 0-7.26624-8.660994-4.236324-21.967077l1.332378-1.032923 2.323932.144169z" fill="#32547e"/><g fill="#fff" transform="translate(5 116)"><path d="m117.549893 20.3171568s9.025531-13.94895749 5.24592-15.09397766c-3.779636-1.1452998-21.171397 12.09860016-21.171397 12.09860016s5.634034-10.6538935 2.160467-11.56705378c-3.473568-.91311862-26.8650233 17.23343108-26.8650233 17.23343108s7.6882278-11.1851424 3.1952485-11.7240665c-4.4932951-.5389133-28.0674575 18.5900227-28.0674575 18.5900227s8.1572583-14.0592055 5.1620957-13.8847603c-2.9948407.1741377-32.5826069 21.2459696-32.5826069 21.2459696s5.6644352-9.0878724 1.8151424-10.1023561c-3.8489949-1.0144777-26.43562449 14.8123188-26.43562449 14.8123188s4.50657933 16.0506898 12.76442589 15.9459402c8.2578586-.1068153 107.8800137-29.4841898 104.7785717-37.5540682z"/><ellipse cx="66.865389" cy="9.197164" rx="5.556196" ry="1.356039" transform="matrix(-.89313786 .44978301 .44978301 .89313786 122.448672 -29.092087)"/><ellipse cx="89.84729" cy="7.102274" rx="4.441599" ry="1" transform="matrix(-.89313819 .44978236 .44978236 .89313819 166.898859 -39.652764)"/><circle cx="47.680487" cy="14.246081" r="1" transform="matrix(-.89313806 .44978262 .44978262 .89313806 83.858105 -19.923491)"/><circle cx="83.854784" cy="4.700974" r="1" transform="matrix(-.99989209 -.01469041 -.01469041 .99989209 167.769578 1.232369)"/><circle cx="58.704136" cy="10.925552" r="1" transform="matrix(-.99989209 -.01469041 -.01469041 .99989209 117.562438 .863567)"/><circle cx="64.427263" cy="16.714612" r="1" transform="matrix(-.99989209 -.01469041 -.01469041 .99989209 129.093118 .948267)"/><circle cx="102.120754" cy="1.649372" r="1" transform="matrix(-.99989209 -.01469041 -.01469041 .99989209 204.254718 1.500374)"/></g><g transform="translate(9 79)"><path d="m32.6365002 65.4694927c-4.7805031-9.5363228-3.529797-27.7695793 9.5779373-39.3450381l-20.0542799-23.80013559s-1.2030869-1.85716962-3.5210307.08561734c-7.2527255 6.07913914-22.07921684 24.45984405-17.72145803 49.20145735 3.43513674 19.5047936 14.47943513 28.539874 23.26326673 28.7395388 9.6253086.2188319 12.319227-7.1744531 8.4554761-14.8814434z" fill="#32547e"/><path d="m24.8211578.03429818c11.1383629 3.13358842 19.0217833 10.84782802 23.6509692 23.14306442-3.4830509 1.2485583-7.1478359 3.9749584-10.4497368 7.2841604-10.3723379 10.3945238-14.3166733 21.4074987-8.5522248 35.2798349.9541715 2.2965728 1.9171095 6.024813.3599326 8.2825429-1.2150684 1.7616856-3.7530032 2.0707763-5.722699 2.0257917-4.272449-.0969362-8.2477616-2.8691952-11.0071623-5.9142853-4.76764853-5.2618322-7.36634619-12.5332285-8.60130703-19.4000091-3.16022316-17.5770644 7.03097063-39.5014529 20.32216743-50.70109992z" fill="#fff"/><g fill="#32547e" transform="translate(14 63)"><path d="m13.848151 13.2333407s-4.1985365-5.0395168-4.7562569-12.4043576c0 0 3.2878959 8.3933635 7.393247 11.5894065l-1.2878127 1.0065109-1.3491656-.1915504z"/><path d="m5.5512482 14.3802265s-4.2128482-5.0276202-4.7919005-12.3909959c0 0 3.2969513 8.4415948 7.4116528 11.6256826l-1.2699909.9528176-1.3497496-.1874873z"/></g></g><path d="m63.6067577 19.973804-1.0325244 1.8839656c-2.1487615 3.9207577 2.1369709 9.6176046 6.1715775 10.0993306 2.5004019.2983187 4.3709151-1.0342716 6.546186-1.6779339 4.6164462-1.3658002 8.7606856-3.645657 10.2438831-8.8666771.2697003-.9499147.4126568-1.9383342.4533328-2.9238159.1411877-3.4469785-1.0758538-9.00246488-5.2911403-9.46241018-1.6824589-.18340007-3.1821727.60986373-4.2350346 1.87514658-1.0012833 1.2026768-1.8999867 2.5220433-2.8334786 3.8102462-2.7818939 3.8381693-5.2937948 5.5287383-10.0228318 5.2621659z" fill="#32547e"/><path d="m74.5444786 19.2624629c1.4171629-1.836807 2.562095-3.7758012 4.0049668-5.5834967 1.5937047-1.9969292 3.0174376.7370371 3.3656587 3.9706856.7447164 6.9129132-3.5016327 14.4642036-9.1437101 15.2621451 0 0-5.127899 1.3668362-7.7811433 1.036784-1.7825272-.2219137-.7764243-8.4018401.0579889-9.9899848 3.7801509.221023 7.2791937-1.8216544 9.4962055-4.6961392z" fill="#fff"/><path d="m40.7177325 16.4622114c-6.3153085 4.7824633-8.334768 13.1263465-5.3888991 20.087123 2.4323582 5.7469231 7.8500767 6.1379556 12.2459497 4.8314864 3.9181216-1.1642918 6.7694335-3.6221834 9.9793995-5.715673 4.8788408-3.1820932 13.0195925-10.7426958 5.1954301-18.065877-5.9626629-5.5814964-15.3074516-6.2297146-22.0319385-1.1370594z" fill="#32547e"/><path d="m42.4622119 18.7794283c-5.1370757 3.8376152-6.7777657 10.5110063-4.379596 16.0897299.2345485.5460288.5083821 1.0820682.8212117 1.6035495.2787807.4649666.5884073.9185157.9300485 1.3583676 4.2431181 5.4645705 15.1839697 3.2904458 20.759548-2.1829718 4.0690979-3.9940326 4.4840668-10.1796015 1.2920562-14.2906344-.4711342-.6065398-.9841731-1.1631327-1.5318415-1.6694846-4.845199-4.4778374-12.4217415-4.9947539-17.8914328-.9085274z" fill="#fff"/><path d="m46.513138 21.8011661c-3.9158125 2.9471159-4.6730405 8.4752146-1.6904159 12.3448125 2.2864087 2.9669251 6.8274078 2.0365912 10.3491077-.4290476 3.7489826-2.6249651 6.3431071-6.9897083 3.833576-10.245271-2.9823269-3.8695803-8.5764731-4.617868-12.4923035-1.670458z" fill="#f7b88a"/><path d="m45.5483655 22.6975513c-3.1693223 2.2246145-4.2896954 6.0098683-3.0606207 9.3024487-.0518194-2.7087859 1.2469412-5.4032948 3.7643546-7.1703743 3.9302334-2.7587388 9.4368201-2.280603 12.7479006.9650506-.1590323-.5269902-.4282545-1.0383367-.8294058-1.5236054-3.0132697-3.6463854-8.6654574-4.3509637-12.6222167-1.5735584z" fill="#32547e"/><path d="m35 77s-7.8287711 7.9049184-10.2585749 12c0 0-.6299579-.1427876-.7197169-.4761535-.0900337-.3333659.1349121-3.5714459.0448783-3.6189394-.0000044.0000113 4.4543059-5.4763412 10.9334135-7.9049071z" fill="#32547e"/><g transform="translate(49 35)"><path d="m27.7563733.0311548c-2.5327537 0-7.2624643 3.22069661-7.2624643 4.72173147 0 2.82007095 8.1316317 2.53283085 9.6323889.50092633.3308627-.44801331.1628239-5.2226578-2.3699304-5.2226578z" fill="#32547e"/><path d="m46.7362452.3340769c2.2549092.36137633 6.4660152 3.90390937 6.4660152 5.24068039 0 2.51044645-7.2398824 1.09401207-8.5760729-.92917292-.2946475-.44626917-.145151-4.67318027 2.110046-4.31151334z" fill="#32547e"/><g transform="translate(27.881904 23.727786)"><path d="m23.4145883 3.40376298c2.0179167 2.96427512-2.4835007 8.38232242-6.8200706 10.67817682-3.2440236 1.7176288-6.65983304 1.5365047-9.81842583-.3355013-4.13839366-2.4525922-8.14783674-7.51447914-6.22235352-10.34267494 3.03281305-4.45571164 19.82774435-4.45571164 22.86084995 0z" fill="#32547e"/><path d="m8.90077511 2.76798249c-.93580134 1.54929665 11.34814159 5.39302702 12.24310839 2.14936071.8743799-3.16836477-11.0503068-4.12370273-12.24310839-2.14936071z" fill="#fff"/></g><g transform="translate(44.934676 12.775791)"><ellipse cx="3.067557" cy="4.211625" fill="#32547e" rx="3.057916" ry="4.064921"/><circle cx="3.66545" cy="2.945759" fill="#fff" r="1" transform="matrix(-.9621871 .27238941 .27238941 .9621871 6.389905 -.887042)"/></g><g transform="translate(23.808249 12.775791)"><ellipse cx="3.367782" cy="4.483138" fill="#32547e" rx="3.363707" ry="4.471415"/><circle cx="4.030027" cy="2.765592" fill="#fff" r="1" transform="matrix(-.93471775 .35539095 .35539095 .93471775 6.814098 -1.251691)"/></g><ellipse cx="7.513146" cy="22.158666" fill="#fcc" rx="7.350452" ry="5.055582"/><ellipse cx="61.432" cy="23.829952" fill="#fcc" rx="5.488619" ry="3.933843"/><g fill="#32547e" transform="translate(6 30)"><path d="m5.4454893 3.4517824c-3.52505065.7884558-4.93889695 1.5414477-4.8502427 1.017554.08836525-.5238937 1.69864091-3.3207055 4.4918582-3.8518728 1.6812599-.3198023 5.2975739 1.4033489 5.2213748 2.1016801-.0454864.41865-1.711681.02791-4.8629903.7326387z"/><path d="m52.7274431 5.4953206c-1.7820826-.9710359-3.4001835-1.3207797-3.4030918-1.7702524-.0049129-.8143333 2.9247602-1.4530666 4.8482251-.6163431 1.1820664.5140088 2.0266101 2.0476065 1.996189 3.3843775-.0562062 2.4828255-1.9828622-.2026385-3.4413223-.997782z"/><path d="m52.3056422 4.5172871c-5.8778925 6.7042259-9.967314 11.9050628-17.4586974 4.1830128-3.976442 4.130677-8.5830347 5.5433307-12.3537361 5.2662702-6.2846584-.4619688-11.4504035-5.6965462-16.3188989-11.4477472-.6205856-.7332198-1.4292031-.3610857-1.42489111.3116616.17850391 28.2289469 22.68590451 31.1373931 44.75984131 22.6283256-7.3621521-4.6830663 1.1701904-15.2874386 4.2490681-19.6829536l-1.4526684-1.2585636z"/></g><path d="m22.37183 54.8845705c.1657209.1000107.3326014.198859.5035373.2947996 6.4251806 3.6102763 14.7092105 3.3931012 22.3141468 1.7251842-3.0368673-5.9398804-16.6943661-7.6447466-22.8176841-2.0199855z" fill="#ec6e6f"/><ellipse cx="36.975737" cy="53.666432" fill="#f2968f" rx="5.11909" ry="1" transform="matrix(-.97479926 -.22308386 -.22308386 .97479926 84.991773 9.601124)"/><g fill="#fff"><path d="m19.5905881 43.0718514c.3929102 3.733546 1.8733929 6.0302869 4.010385 6.7899946 1.8858012.6704226 4.4130498-.4901691 5.9537699-3.7361584 0 0-5.4667741.7721768-9.9641549-3.0538362z"/><path d="m42.0396878 42.9280229s1.2640573 5.9102342 4.621072 5.4101808c3.3567222-.500054 4.2933953-3.9847351 4.2933953-3.9847351s-4.1951818 1.7400132-8.9144673-1.4254457z"/></g></g><path d="m49 36.3229698s.3962598-4.859323 1.800036-5.6944346c1.4040596-.8353793 2.686655 2.5055802 2.686655 2.5055802.9441187-6.0908353 2.6827113-6.9853151 5.5001292-1.4808195.3486199.6810556-6.302775 7.4789346-9.9868202 4.6696627z" fill="#fff"/><use fill="#000" xlink:href="#a"/><use fill="#295483" xlink:href="#a"/></g></svg>